<?xml version="1.0" encoding="utf-8"?>
<!-- Generator: Adobe Illustrator 22.1.0, SVG Export Plug-In . SVG Version: 6.00 Build 0)  -->
<svg version="1.1" id="Laag_1" xmlns="http://www.w3.org/2000/svg" xmlns:xlink="http://www.w3.org/1999/xlink" x="0px" y="0px"
	 viewBox="0 0 220 250" style="enable-background:new 0 0 220 250;" xml:space="preserve">
<style type="text/css">
	.st0{fill:url(#SVGID_1_);}
	.st1{opacity:0.1;fill:#FFFFFF;}
	.st2{opacity:0.2;fill:#FFFFFF;}
	.st3{fill:url(#SVGID_2_);}
	.st4{fill:url(#SVGID_3_);}
	.st5{fill:url(#SVGID_4_);}
	.st6{fill:#FFDE17;}
	.st7{fill:#F27B43;}
	.st8{fill:#ECF2FE;}
	.st9{fill:#003366;}
	.st10{fill:url(#SVGID_5_);}
	.st11{fill:#FFFFFF;}
	.st12{fill:url(#SVGID_6_);}
	.st13{fill:#F8FBFF;}
</style>
<g>
	<linearGradient id="SVGID_1_" gradientUnits="userSpaceOnUse" x1="176.3926" y1="233.2677" x2="57.7694" y2="27.8063">
		<stop  offset="0" style="stop-color:#003366"/>
		<stop  offset="1" style="stop-color:#97C7ED"/>
	</linearGradient>
	<path class="st0" d="M216.9,132c0,2.9-0.1,5.7-0.2,8.6c0,0.5,0,1.1-0.1,1.7c0,0.5,0,1.1-0.1,1.6c-1.2,19-5.5,37.4-12.9,53.2
		c0,0.1-0.1,0.2-0.1,0.3c-0.7,1.5-1.5,3-2.2,4.5c-0.9,1.7-1.8,3.4-2.7,5c-8.5,14.5-20.1,26.3-34.7,33.4c-10,4.9-24.7,9.7-37.6,9.7
		c-23.8,0-45.8-11.4-67.4-26.3c-14.9-10.3-28-23.4-37.8-38c-8.7-13-14.8-27.2-16.9-41.8c-0.6-4-0.9-7.9-0.9-11.9v-0.3
		c0-1.3,0.1-2.7,0.1-4c0-0.9,0.1-1.8,0.2-2.7c0-0.5,0.1-0.9,0.1-1.4c0,0,0,0,0-0.1c0-0.3,0.1-0.6,0.1-0.9c0,0,0,0,0-0.1
		c0-0.1,0-0.2,0-0.3c0-0.3,0.1-0.5,0.1-0.7c0-0.2,0-0.4,0.1-0.6c0,0,0,0,0-0.1c0,0,0,0,0,0c0-0.3,0.1-0.6,0.1-0.9
		c0.1-0.9,0.3-1.7,0.4-2.6v-0.1c0,0,0-0.1,0-0.1c0.1-0.4,0.2-0.8,0.3-1.1c0.1-0.5,0.2-1,0.3-1.5c0.1-0.3,0.1-0.7,0.2-1
		c0.1-0.3,0.1-0.6,0.2-0.9c0.1-0.4,0.2-0.9,0.3-1.3c0.2-0.9,0.4-1.7,0.6-2.6c0.2-0.8,0.4-1.5,0.6-2.2c0-0.1,0.1-0.2,0.1-0.3
		c0.3-0.9,0.5-1.8,0.8-2.7v0c0.1-0.2,0.1-0.4,0.2-0.6c0-0.1,0.1-0.3,0.1-0.4c0.1-0.4,0.3-0.8,0.4-1.2c0.1-0.2,0.1-0.3,0.2-0.5
		c0-0.2,0.1-0.3,0.2-0.4c0.2-0.5,0.3-1,0.5-1.5l0,0c1-2.7,2.1-5.5,3.3-8.2c0,0,0-0.1,0-0.1h0c0.8-1.8,1.6-3.6,2.5-5.4
		c0.4-0.8,0.8-1.5,1.2-2.3c0.4-0.8,0.8-1.5,1.2-2.3c0.3-0.6,0.6-1.2,1-1.8c1-1.8,2-3.6,3.1-5.4c0,0,0-0.1,0.1-0.1
		c0.1-0.2,0.2-0.3,0.3-0.4c0.5-0.8,1-1.6,1.5-2.4c0.2-0.2,0.3-0.4,0.4-0.6c0.5-0.8,1-1.6,1.6-2.4c0.5-0.8,1-1.5,1.6-2.3
		c0.5-0.7,1-1.5,1.5-2.1c0,0,0-0.1,0.1-0.1c0,0,0-0.1,0-0.1v0c0.8-1.1,1.6-2.2,2.5-3.4c0.4-0.5,0.8-1.1,1.3-1.6c0,0,0-0.1,0.1-0.1
		c0.4-0.5,0.9-1.1,1.3-1.6c0.6-0.8,1.2-1.5,1.8-2.3c0.6-0.7,1.2-1.4,1.7-2.1c0.1-0.1,0.1-0.2,0.2-0.3c0.1-0.1,0.1-0.1,0.2-0.2
		c0.1,0,0.1-0.1,0.1-0.1c0.1-0.1,0.1-0.2,0.2-0.3c0.1-0.2,0.3-0.3,0.3-0.4c0.3-0.3,0.6-0.7,0.9-1c0.9-1.1,1.9-2.1,2.9-3.2
		c0.8-0.9,1.6-1.7,2.4-2.6c0.5-0.6,1-1.1,1.6-1.6c0.1-0.1,0.3-0.3,0.4-0.3c0.2-0.2,0.3-0.4,0.5-0.5c0.6-0.6,1.1-1.2,1.7-1.7l0.8-0.8
		c0.8-0.8,1.7-1.6,2.6-2.4c0.4-0.4,0.8-0.8,1.2-1.1c1.5-1.3,2.9-2.6,4.4-3.9c0.6-0.5,1.1-0.9,1.7-1.4c0.2-0.2,0.5-0.4,0.7-0.6
		c0.1-0.1,0.2-0.2,0.3-0.3c0.8-0.6,1.5-1.3,2.3-1.9c0.2-0.2,0.5-0.4,0.7-0.5c1-0.8,2-1.5,3-2.3c0.8-0.6,1.7-1.2,2.5-1.8
		c1.2-0.9,2.4-1.7,3.6-2.5c0.1-0.1,0.2-0.1,0.3-0.2c0.2-0.2,0.5-0.3,0.7-0.5c0.3-0.2,0.6-0.4,1-0.6c0.3-0.2,0.7-0.4,1-0.7
		c0.8-0.5,1.6-1,2.4-1.5c0.9-0.5,1.7-1,2.6-1.5c0.1-0.1,0.3-0.2,0.4-0.3c0.7-0.4,1.5-0.8,2.2-1.2c0.8-0.4,1.6-0.9,2.4-1.3
		c0.9-0.5,1.8-0.9,2.7-1.4c0.1,0,0.2-0.1,0.3-0.1c0.9-0.4,1.8-0.9,2.7-1.3c0.3-0.1,0.5-0.2,0.8-0.3c0.9-0.4,1.8-0.8,2.8-1.2
		c0.5-0.2,1-0.4,1.5-0.6c0,0,0.1,0,0.1,0c0.6-0.3,1.2-0.5,1.8-0.7c0.3-0.1,0.6-0.3,0.9-0.3c0.3-0.1,0.6-0.2,0.9-0.3
		c0.5-0.2,1.1-0.4,1.6-0.6c1-0.3,2.1-0.7,3.1-1c1-0.3,2-0.6,2.9-0.9c0.9-0.3,1.9-0.5,2.8-0.7c0,0,0.1,0,0.1,0
		c0.6-0.1,1.2-0.3,1.8-0.4c0.3-0.1,0.6-0.1,0.9-0.2c0.6-0.1,1.2-0.3,1.8-0.4c0.3-0.1,0.7-0.1,1-0.2c0.3,0,0.5-0.1,0.7-0.1
		c0.2,0,0.3-0.1,0.5-0.1c0.3-0.1,0.7-0.1,1.1-0.2c0.7-0.1,1.4-0.2,2.1-0.3c0.9-0.1,1.9-0.2,2.8-0.3c2.1-0.2,4.1-0.3,6.1-0.3
		c19.2,0,35.1,7.7,47.9,20.1c21.4,20.7,33.9,54.6,38.1,87.7C216.4,116,216.9,124.1,216.9,132z"/>
	<path class="st1" d="M215.4,107.8L62.8,26.8C81.5,12,102.8,2,123.3,0.3c2.1-0.2,4.1-0.3,6.1-0.3c19.1,0,35.1,7.7,47.9,20.1
		C198.7,40.8,211.2,74.7,215.4,107.8z"/>
	<path class="st1" d="M203.6,197.1c0,0.1-0.1,0.2-0.1,0.3c-0.7,1.5-1.5,3-2.2,4.5c-0.9,1.7-1.8,3.4-2.7,5
		c-8.5,14.5-20.1,26.3-34.7,33.4l-71-83.4l-42.2-49.6l-29-34.1c0,0,0-0.1,0.1-0.1c0.1-0.2,0.2-0.3,0.3-0.4c0.5-0.8,1-1.6,1.5-2.4
		c0.2-0.2,0.3-0.4,0.4-0.6c0.5-0.8,1-1.6,1.6-2.4c0.5-0.8,1-1.5,1.6-2.3c0.5-0.7,1-1.5,1.5-2.1c0,0,0-0.1,0.1-0.1c0,0,0-0.1,0-0.1v0
		c0.8-1.1,1.6-2.2,2.5-3.4c0.4-0.5,0.8-1.1,1.3-1.6c0,0,0-0.1,0.1-0.1c0.4-0.5,0.9-1.1,1.3-1.6c0.6-0.8,1.2-1.5,1.8-2.3
		c0.6-0.7,1.2-1.4,1.7-2.1c0.1-0.1,0.1-0.2,0.2-0.3c0.1-0.1,0.2-0.3,0.3-0.3c0-0.1,0.1-0.1,0.2-0.2c0.1-0.2,0.3-0.3,0.3-0.4
		c0.3-0.3,0.6-0.7,0.9-1c0.9-1.1,1.9-2.1,2.9-3.2L80,81.4l48.3,45.2l18.5,17.3l41.5,38.8l3.1,2.9L203.6,197.1z"/>
	<path class="st2" d="M177.3,20.1c-2.5,20.7-8.2,40.4-16.8,58.6c-8.3,17.6-19.2,33.7-32.2,47.9c-10.5,11.5-22.5,21.7-35.5,30.3
		C76,168,57.4,176.6,37.5,182c-5.4,1.5-10.9,2.7-16.5,3.7c-8.7-13-14.8-27.2-16.9-41.8c-0.6-4-0.9-7.9-0.9-11.9v-0.3
		c0-1.3,0.1-2.7,0.1-4c0-0.9,0.1-1.8,0.2-2.7c0-0.5,0.1-0.9,0.1-1.4c0-0.3,0.1-0.7,0.1-1c0,0,0,0,0-0.1c0-0.1,0-0.2,0-0.3
		c0-0.3,0.1-0.5,0.1-0.7c0-0.2,0-0.4,0.1-0.6c0,0,0,0,0-0.1c0-0.3,0.1-0.6,0.2-1c0.1-0.9,0.3-1.7,0.4-2.6v-0.1c0,0,0-0.1,0-0.1
		c0.2-0.9,0.3-1.7,0.5-2.6c0.1-0.3,0.1-0.7,0.2-1c0.1-0.3,0.1-0.6,0.2-0.9c0.1-0.4,0.2-0.9,0.3-1.3c0.2-0.9,0.4-1.7,0.6-2.6
		c0.2-0.8,0.4-1.5,0.6-2.2c0-0.1,0.1-0.2,0.1-0.3c0.3-0.9,0.5-1.8,0.8-2.7v0c0.1-0.2,0.1-0.4,0.2-0.6c0-0.1,0.1-0.3,0.1-0.4
		c0.1-0.4,0.3-0.8,0.4-1.2c0.1-0.2,0.1-0.3,0.2-0.5c0-0.2,0.1-0.3,0.2-0.4c0.2-0.5,0.3-1,0.5-1.5l0,0c1-2.7,2.1-5.5,3.3-8.2
		c0,0,0-0.1,0-0.1h0c0.8-1.8,1.6-3.6,2.5-5.4c0.4-0.8,0.8-1.5,1.2-2.3c0.4-0.8,0.8-1.5,1.2-2.3c0.3-0.6,0.6-1.2,1-1.8
		c1-1.8,2-3.6,3.1-5.4c0,0,0-0.1,0.1-0.1c0.1-0.2,0.2-0.3,0.3-0.4c0.5-0.8,1-1.6,1.5-2.4c0.1-0.2,0.3-0.4,0.4-0.6h0
		c0-0.1,0.1-0.2,0.1-0.3c0.5-0.7,0.9-1.5,1.5-2.2c0.5-0.8,1-1.5,1.6-2.3c0.5-0.7,1-1.5,1.5-2.1c0-0.1,0-0.1,0.1-0.2v0
		c0.8-1.1,1.6-2.2,2.5-3.4c0.4-0.5,0.8-1.1,1.3-1.6c0,0,0-0.1,0.1-0.1c0.4-0.5,0.9-1.1,1.3-1.6c0.6-0.8,1.2-1.5,1.8-2.3
		c0.6-0.7,1.2-1.4,1.7-2.1c0.1-0.1,0.1-0.2,0.2-0.3c0.1-0.1,0.1-0.1,0.2-0.2c0.2-0.3,0.4-0.5,0.7-0.8c0.3-0.3,0.6-0.7,0.9-1
		c0.9-1.1,1.9-2.1,2.9-3.2c0.8-0.9,1.6-1.7,2.4-2.6c0.5-0.6,1-1.1,1.6-1.6c0.1-0.1,0.3-0.3,0.4-0.3c0.2-0.2,0.3-0.4,0.5-0.5
		c0.6-0.6,1.1-1.2,1.7-1.7l0.8-0.8c0.8-0.8,1.7-1.6,2.6-2.4c0.4-0.4,0.8-0.8,1.2-1.1c1.5-1.3,2.9-2.6,4.4-3.9
		c0.6-0.5,1.1-0.9,1.7-1.4c0.2-0.2,0.5-0.4,0.7-0.6c0.1-0.1,0.2-0.2,0.3-0.3c0.8-0.6,1.5-1.3,2.3-1.9c0.2-0.2,0.5-0.4,0.7-0.5
		c1-0.8,2-1.5,3-2.3c0.8-0.6,1.7-1.2,2.5-1.8c1.2-0.9,2.4-1.7,3.6-2.5c0.1-0.1,0.2-0.1,0.3-0.2c0.2-0.2,0.5-0.3,0.7-0.5
		c0.3-0.2,0.6-0.4,1-0.6c0.3-0.2,0.7-0.4,1-0.7c0.8-0.5,1.6-1,2.4-1.5c0.9-0.5,1.7-1,2.6-1.5c0.1-0.1,0.3-0.2,0.4-0.3
		c0.7-0.4,1.5-0.8,2.2-1.2c0.8-0.4,1.6-0.9,2.4-1.3c0.9-0.5,1.8-0.9,2.7-1.4c0.1,0,0.2-0.1,0.3-0.1c0.9-0.4,1.8-0.9,2.7-1.3
		c0.3-0.1,0.5-0.2,0.8-0.3c0.9-0.4,1.8-0.8,2.8-1.2c0.5-0.2,1-0.4,1.5-0.6c0,0,0.1,0,0.1,0c0.6-0.3,1.2-0.5,1.8-0.7
		c0.3-0.1,0.6-0.3,0.9-0.3c0.3-0.1,0.6-0.2,0.9-0.3c0.5-0.2,1.1-0.4,1.6-0.6c1-0.3,2.1-0.7,3.1-1c1-0.3,2-0.6,2.9-0.9
		c0.9-0.3,1.9-0.5,2.8-0.7c0,0,0.1,0,0.1,0c0.6-0.1,1.2-0.3,1.8-0.4c0.3-0.1,0.6-0.1,0.9-0.2c0.6-0.1,1.2-0.3,1.8-0.4
		c0.3-0.1,0.7-0.1,1-0.2c0.3,0,0.5-0.1,0.7-0.1c0.2,0,0.3-0.1,0.5-0.1c0.3-0.1,0.7-0.1,1.1-0.2c0.7-0.1,1.4-0.2,2.1-0.3
		c0.9-0.1,1.9-0.2,2.8-0.3c2.1-0.2,4.1-0.3,6.1-0.3C148.6,0,164.5,7.7,177.3,20.1z"/>
	<path class="st2" d="M123.3,0.3c-4.2,17.2-10.7,33.5-19.3,48.4c-6.8,11.8-14.8,22.8-24,32.7c-2.8,3.1-5.8,6.1-8.8,9
		c-6.4,6.1-13.2,11.8-20.5,16.9c-2.3,1.6-4.6,3.2-7,4.8c-0.8,0.5-1.5,1-2.3,1.5c-1.4,0.9-2.7,1.7-4.2,2.5c-0.4,0.3-0.9,0.5-1.4,0.8
		c-0.9,0.5-1.8,1.1-2.8,1.6c-1.5,0.9-3.1,1.7-4.7,2.6c-1,0.5-2,1-3.1,1.5c-0.8,0.4-1.6,0.8-2.4,1.2c-1.1,0.5-2.2,1-3.4,1.5
		c0,0.1,0,0,0,0c-0.9,0.4-1.9,0.9-2.8,1.3c-2.1,0.9-4.1,1.7-6.2,2.5c-2.4,0.9-4.8,1.8-7.3,2.7c0-1.3,0.1-2.7,0.1-4
		c0-0.9,0.1-1.8,0.2-2.7c0-0.5,0.1-0.9,0.1-1.4c0,0,0,0,0-0.1c0-0.3,0.1-0.6,0.1-0.9c0,0,0,0,0-0.1c0-0.1,0-0.2,0-0.3
		c0-0.3,0.1-0.5,0.1-0.7l0.1-0.7c0-0.3,0.1-0.6,0.1-0.9c0.1-0.9,0.3-1.7,0.4-2.6v-0.1c0,0,0-0.1,0-0.1c0.1-0.4,0.2-0.8,0.3-1.1
		c0.1-0.8,0.3-1.6,0.5-2.5c0.1-0.3,0.1-0.6,0.2-0.9c0.1-0.4,0.2-0.9,0.3-1.3c0.2-0.9,0.4-1.7,0.6-2.6c0.2-0.8,0.4-1.5,0.6-2.2
		c0-0.1,0.1-0.2,0.1-0.3c0.3-0.9,0.5-1.8,0.8-2.7v0c0.1-0.2,0.1-0.4,0.2-0.6c0-0.1,0.1-0.3,0.1-0.4c0.1-0.4,0.3-0.8,0.4-1.2
		c0.1-0.2,0.1-0.3,0.2-0.5c0-0.2,0.1-0.3,0.2-0.4c0.2-0.5,0.3-1,0.5-1.5l0,0c1-2.7,2.1-5.5,3.3-8.2c0,0,0-0.1,0.1-0.1
		c0.8-1.8,1.6-3.6,2.5-5.4c0.4-0.8,0.8-1.5,1.2-2.3c0.4-0.8,0.8-1.5,1.2-2.3c0.3-0.6,0.6-1.2,1-1.8c1-1.8,2-3.6,3.1-5.4
		c0,0,0-0.1,0.1-0.1c0.1-0.2,0.2-0.3,0.3-0.4c0.5-0.8,1-1.6,1.5-2.4c0.1-0.2,0.3-0.4,0.4-0.6c0.1-0.1,0.1-0.2,0.2-0.3
		c0.5-0.7,0.9-1.5,1.5-2.2c0.5-0.8,1-1.5,1.6-2.3c0.5-0.7,1-1.5,1.5-2.1c0-0.1,0-0.1,0.1-0.2v0c0.8-1.1,1.6-2.2,2.5-3.4
		c0.4-0.5,0.8-1.1,1.3-1.6c0,0,0-0.1,0.1-0.1c0.4-0.5,0.9-1.1,1.3-1.6c0.6-0.8,1.2-1.5,1.8-2.3c0.6-0.7,1.2-1.4,1.7-2.1
		c0.2-0.2,0.3-0.4,0.5-0.5c0.1-0.1,0.1-0.2,0.2-0.3c0.1-0.2,0.3-0.3,0.3-0.4c0.3-0.3,0.6-0.7,0.9-1c0.9-1.1,1.9-2.1,2.9-3.2
		c0.8-0.9,1.6-1.7,2.4-2.6c0.7-0.7,1.3-1.3,2-2c0.7-0.8,1.5-1.5,2.2-2.2l0.8-0.8c0.8-0.8,1.7-1.6,2.6-2.4c0.4-0.4,0.8-0.8,1.2-1.1
		c1.5-1.3,2.9-2.6,4.4-3.9c0.6-0.5,1.1-0.9,1.7-1.4c0.2-0.2,0.5-0.4,0.7-0.6c0.1-0.1,0.2-0.2,0.3-0.3c0.8-0.6,1.5-1.3,2.3-1.9
		c0.2-0.2,0.5-0.4,0.7-0.5c1-0.8,2-1.5,3-2.3c0.8-0.6,1.7-1.2,2.5-1.8c1.2-0.9,2.4-1.7,3.6-2.5c0.1-0.1,0.2-0.1,0.3-0.2
		c0.2-0.2,0.5-0.3,0.7-0.5c0.3-0.2,0.6-0.4,1-0.6c0.3-0.2,0.7-0.4,1-0.7c0.8-0.5,1.6-1,2.4-1.5c0.9-0.5,1.7-1,2.6-1.5
		c0.1-0.1,0.3-0.2,0.4-0.3c0.7-0.4,1.5-0.8,2.2-1.2c0.8-0.4,1.6-0.9,2.4-1.3c0.9-0.5,1.8-0.9,2.7-1.4c0.1,0,0.2-0.1,0.3-0.1
		c0.9-0.4,1.8-0.9,2.7-1.3c0.3-0.1,0.5-0.2,0.8-0.3c0.9-0.4,1.8-0.8,2.8-1.2c0.5-0.2,1-0.4,1.5-0.6c0,0,0.1,0,0.1,0
		c0.6-0.3,1.2-0.5,1.8-0.7c0.3-0.1,0.6-0.3,0.9-0.3c0.3-0.1,0.6-0.2,0.9-0.3c0.5-0.2,1.1-0.4,1.6-0.6c1-0.3,2.1-0.7,3.1-1
		c1-0.3,2-0.6,2.9-0.9c0.9-0.3,1.9-0.5,2.8-0.7c0,0,0.1,0,0.1,0c0.6-0.1,1.2-0.3,1.8-0.4c0.3-0.1,0.6-0.1,0.9-0.2
		c0.6-0.1,1.2-0.3,1.8-0.4c0.3-0.1,0.7-0.1,1-0.2c0.3,0,0.5-0.1,0.7-0.1c0.2,0,0.3-0.1,0.5-0.1c0.3-0.1,0.7-0.1,1.1-0.2
		c0.7-0.1,1.4-0.2,2.1-0.3C121.5,0.4,122.4,0.3,123.3,0.3z"/>
	<path class="st1" d="M58.8,223.7c-14.9-10.3-28-23.4-37.8-38c-8.7-13-14.8-27.2-16.9-41.8c-0.6-4-0.9-7.9-0.9-11.9v-0.3
		c0-1.3,0.1-2.7,0.1-4c0-0.9,0.1-1.8,0.2-2.7c0-0.5,0.1-0.9,0.1-1.4c0,0,0,0,0-0.1c0-0.3,0.1-0.6,0.1-0.9c0,0,0,0,0-0.1
		c0-0.1,0-0.2,0-0.3c0-0.3,0.1-0.5,0.1-0.7c0-0.2,0-0.4,0.1-0.6c0,0,0,0,0-0.1c0,0,0,0,0,0c0-0.3,0.1-0.6,0.1-0.9
		c0.1-0.9,0.3-1.7,0.4-2.6l6,11.7l7.6,14.9L37.5,182L58.8,223.7z"/>
</g>
<linearGradient id="SVGID_2_" gradientUnits="userSpaceOnUse" x1="726.8643" y1="907.6532" x2="668.129" y2="944.8347" gradientTransform="matrix(0 1 -1 0 1087.726 -532.8234)">
	<stop  offset="0" style="stop-color:#EFA586"/>
	<stop  offset="0.3551" style="stop-color:#F0A789"/>
	<stop  offset="0.5686" style="stop-color:#F2AF91"/>
	<stop  offset="0.7447" style="stop-color:#F5BB9F"/>
	<stop  offset="0.8994" style="stop-color:#FBCDB3"/>
	<stop  offset="1" style="stop-color:#FFDCC5"/>
</linearGradient>
<path class="st3" d="M146.4,197.4v-50.5c0,0,0-12,19.1-12s19,12,19,12v50.5H146.4z"/>
<linearGradient id="SVGID_3_" gradientUnits="userSpaceOnUse" x1="673.3464" y1="1015.9807" x2="614.6112" y2="1053.1621" gradientTransform="matrix(0 1 -1 0 1087.726 -532.8234)">
	<stop  offset="0" style="stop-color:#EFA586"/>
	<stop  offset="0.3551" style="stop-color:#F0A789"/>
	<stop  offset="0.5686" style="stop-color:#F2AF91"/>
	<stop  offset="0.7447" style="stop-color:#F5BB9F"/>
	<stop  offset="0.8994" style="stop-color:#FBCDB3"/>
	<stop  offset="1" style="stop-color:#FFDCC5"/>
</linearGradient>
<path class="st4" d="M38.1,143.9V93.4c0,0,0-12,19.1-12s19,12,19,12v50.5H38.1z"/>
<g>
	<linearGradient id="SVGID_4_" gradientUnits="userSpaceOnUse" x1="65.3965" y1="110.0945" x2="82.9291" y2="46.4002">
		<stop  offset="0" style="stop-color:#8DD1FA"/>
		<stop  offset="1.085937e-03" style="stop-color:#8DD0F9"/>
		<stop  offset="7.027519e-02" style="stop-color:#7AACD1"/>
		<stop  offset="0.1444" style="stop-color:#6B8DAF"/>
		<stop  offset="0.2261" style="stop-color:#5D7291"/>
		<stop  offset="0.316" style="stop-color:#525C79"/>
		<stop  offset="0.417" style="stop-color:#494B66"/>
		<stop  offset="0.5358" style="stop-color:#433F59"/>
		<stop  offset="0.6891" style="stop-color:#403851"/>
		<stop  offset="1" style="stop-color:#3F364F"/>
	</linearGradient>
	<path class="st5" d="M108.2,88.3l-23.4,23.4c-1.2,1.2-3.1,1.2-4.2,0L40.4,71.5c-1.2-1.2-1.2-3.1,0-4.2l23.4-23.4
		c1.2-1.2,3.1-1.2,4.2,0L108.2,84C109.4,85.2,109.4,87.1,108.2,88.3z"/>
	<path class="st6" d="M64.1,60.4L60.8,57c-1.1-1.1-2.8-1.1-3.9,0l-3.4,3.4c-1.1,1.1-1.1,2.8,0,3.9l3.4,3.4c1.1,1.1,2.8,1.1,3.9,0
		l3.4-3.4C65.2,63.2,65.2,61.4,64.1,60.4z"/>
	<path class="st7" d="M101.9,84.6l-6.1-6.1c-2.3-2.3-6.1-2.3-8.5,0l0,0l10.3,10.3c0.5,0.5,1.4,0.5,1.9,0l2.3-2.3
		C102.5,86,102.5,85.1,101.9,84.6z"/>
</g>
<g>
	<path class="st8" d="M136,159.3l-23.1-23.1c-2.6-2.6-2.6-6.8,0-9.4l35-35c4.3-4.2,10.6-5.1,15.7-2.5c-3.5,4-3.3,10,0.4,13.8
		c3.8,3.8,10,4,13.9,0.4c2.8,5.1,2.1,11.7-2.3,16.1l-8.6,8.6l-1.2,1.2L136,159.3z"/>
	<g>
		<g>
			<path class="st9" d="M139.9,103.4l-1.8-1.8l1.2-1.2h0l1.8,1.8c0.3,0.3,0.3,0.8,0,1.2C140.8,103.7,140.3,103.7,139.9,103.4z"/>
		</g>
		<g>
			<path class="st9" d="M148.1,110.3c0.3-0.3,0.3-0.8,0-1.2l-3.5-3.5c-0.3-0.3-0.8-0.3-1.2,0c-0.1,0.2-0.2,0.4-0.2,0.6
				c0,0.2,0.1,0.4,0.2,0.6l3.5,3.5C147.2,110.6,147.7,110.6,148.1,110.3z M155,117.2c0.3-0.3,0.3-0.8,0-1.2l-3.5-3.5
				c-0.3-0.3-0.8-0.3-1.2,0c-0.1,0.2-0.2,0.4-0.2,0.6s0.1,0.4,0.2,0.6l3.5,3.5C154.1,117.6,154.7,117.6,155,117.2z M161.9,124.2
				c0.3-0.3,0.3-0.8,0-1.2l-3.5-3.5c-0.3-0.3-0.8-0.3-1.2,0c-0.2,0.2-0.2,0.4-0.2,0.6s0.1,0.4,0.2,0.6l3.5,3.5
				C161.1,124.5,161.6,124.5,161.9,124.2z"/>
		</g>
		<g>
			<path class="st9" d="M166,129.4l-1.8-1.8c-0.2-0.1-0.2-0.4-0.2-0.6s0.1-0.4,0.2-0.6c0.3-0.3,0.8-0.3,1.2,0l1.8,1.8L166,129.4z"/>
		</g>
	</g>
</g>
<g>
	<linearGradient id="SVGID_5_" gradientUnits="userSpaceOnUse" x1="72.3119" y1="148.39" x2="32.2989" y2="79.0854">
		<stop  offset="0" style="stop-color:#EFA586"/>
		<stop  offset="1" style="stop-color:#FFDCC5"/>
	</linearGradient>
	<path class="st10" d="M108.3,99.6c0,2.8-1,4.7-2.3,6.1c-1.7,1.7-4.1,2.5-5.8,2.8c-1.4,0.3-2.3,0.3-2.3,0.3h-8.4
		c1.6,0.7,3.1,1.8,3.9,3.7c0.3,0.7,0.4,1.5,0.4,2.4c0,1.5-0.5,2.7-1.2,3.7c-1.2,1.7-3.3,2.6-5,3c0.9,0.8,1.8,1.9,2.1,3.5
		c0.2,0.6,0.2,1.2,0.2,1.9c0,5.2-3.8,6.6-5.9,7c0.5,0.8,0.8,1.7,0.9,2.8l0,0.1v0.5c0,3.4-1.9,5.1-3.6,5.8c-0.9,0.4-1.8,0.6-2.4,0.6
		l-0.6,0H4.1c-0.6-4-0.9-7.9-0.9-11.9v-0.3c0-1.3,0.1-2.7,0.1-4c0-0.9,0.1-1.8,0.2-2.7c0-0.5,0.1-0.9,0.1-1.4c0-0.3,0.1-0.7,0.1-1
		c0,0,0,0,0-0.1c0-0.1,0-0.2,0-0.3c0-0.3,0.1-0.5,0.1-0.7c0-0.2,0-0.4,0.1-0.6c0,0,0,0,0-0.1c0-0.3,0.1-0.6,0.2-1
		c0.1-0.9,0.3-1.7,0.4-2.6v-0.1c0,0,0-0.1,0-0.1c0.2-0.9,0.3-1.7,0.5-2.6c0.1-0.3,0.1-0.7,0.2-1c0.1-0.3,0.1-0.6,0.2-0.9
		c0.1-0.4,0.2-0.9,0.3-1.3c0.2-0.9,0.4-1.7,0.6-2.6c0.2-0.8,0.4-1.5,0.6-2.2c0-0.1,0.1-0.2,0.1-0.3c0.3-0.9,0.5-1.8,0.8-2.7v0
		c0.1-0.2,0.1-0.4,0.2-0.6c0-0.1,0.1-0.3,0.1-0.4c0.1-0.4,0.3-0.8,0.4-1.2c0.1-0.2,0.1-0.3,0.2-0.5c0-0.2,0.1-0.3,0.2-0.4
		c0.2-0.5,0.3-1,0.5-1.5l0,0c1-2.7,2.1-5.5,3.3-8.2c0,0,0-0.1,0-0.1h85.1c0,0,0.7,0,1.6,0.2h0C102.4,91,108.3,92.7,108.3,99.6z"/>
	<g>
		<rect x="19.4" y="90.4" class="st9" width="8.9" height="53.5"/>
		<path class="st6" d="M23.9,105c-5.6,0-10.3,3.9-11.6,9.1c-1.4,0.2-1.7,1.4-1.7,2.8s0.3,2.6,1.7,2.8c1.3,5.2,6,9.1,11.6,9.1
			c6.6,0,11.9-5.3,11.9-11.9S30.5,105,23.9,105z"/>
		<circle class="st11" cx="23.9" cy="117" r="9.3"/>
		<path class="st9" d="M29.3,112.1l-0.6-0.6l-4.3,4.3c-0.2-0.1-0.4-0.1-0.6-0.1c-0.3,0-0.6,0.1-0.8,0.3l-3-2.1l-0.5,0.7l3,2.1
			c0,0.1-0.1,0.2-0.1,0.4c0,0.7,0.6,1.3,1.3,1.3s1.3-0.6,1.3-1.3c0-0.2-0.1-0.4-0.1-0.6L29.3,112.1z"/>
	</g>
</g>
<linearGradient id="SVGID_6_" gradientUnits="userSpaceOnUse" x1="193.2603" y1="203.3049" x2="148.0513" y2="125.0006">
	<stop  offset="0" style="stop-color:#EFA586"/>
	<stop  offset="0.2473" style="stop-color:#F0A98A"/>
	<stop  offset="0.5034" style="stop-color:#F3B397"/>
	<stop  offset="0.7627" style="stop-color:#F8C5AB"/>
	<stop  offset="1" style="stop-color:#FFDCC5"/>
</linearGradient>
<path class="st12" d="M216.5,143.9c-1.2,19-5.5,37.4-12.9,53.2c0,0.1-0.1,0.2-0.1,0.3h-65.2l-0.6,0c-1.6-0.2-6-1.2-6-6.4v-0.5l0-0.1
	c0.1-1.2,0.4-2.1,0.9-2.8c-2.1-0.4-5.9-1.8-5.9-7c0-0.7,0.1-1.4,0.2-1.9c0.3-1.6,1.2-2.7,2.1-3.5c-1.7-0.4-3.8-1.3-5-3
	c-0.7-0.9-1.2-2.1-1.2-3.7c0-0.9,0.2-1.7,0.4-2.4c0.7-1.9,2.2-3,3.9-3.7h-8.4c0,0-10.4,0-10.4-9.2c0-6.9,5.9-8.6,8.8-9.1h0
	c0.9-0.2,1.6-0.2,1.6-0.2H216.5z"/>
<path class="st13" d="M216.6,142.2c0,0.5,0,1.1-0.1,1.6c-1.2,19-5.5,37.4-12.9,53.2c0,0.1-0.1,0.2-0.1,0.3c-0.7,1.5-1.5,3-2.2,4.5
	h-13v-59.7H216.6z"/>
<path class="st7" d="M216.7,140.6c0,0.5,0,1.1-0.1,1.7c0,0.5,0,1.1-0.1,1.6c-1.2,19-5.5,37.4-12.9,53.2c0,0.1-0.1,0.2-0.1,0.3
	c-0.7,1.5-1.5,3-2.2,4.5c-0.9,1.7-1.8,3.4-2.7,5h-7.2v-66.4H216.7z"/>
</svg>
