<svg xmlns="http://www.w3.org/2000/svg" xmlns:xlink="http://www.w3.org/1999/xlink" viewBox="0 0 226.08 239.89"><defs><style>.cls-1{fill:url(#linear-gradient);}.cls-2,.cls-3{fill:#fff;}.cls-3,.cls-9{opacity:0.1;}.cls-4{fill:url(#linear-gradient-2);}.cls-5{fill:url(#linear-gradient-3);}.cls-6{fill:url(#linear-gradient-4);}.cls-7{fill:url(#linear-gradient-5);}.cls-8{fill:#f27b43;}.cls-9{fill:#036;}</style><linearGradient id="linear-gradient" x1="113.04" y1="239.89" x2="113.04" gradientUnits="userSpaceOnUse"><stop offset="0" stop-color="#97c7ed"/><stop offset="0.01" stop-color="#95c5eb"/><stop offset="0.18" stop-color="#6899c3"/><stop offset="0.34" stop-color="#4274a1"/><stop offset="0.51" stop-color="#255887"/><stop offset="0.68" stop-color="#114375"/><stop offset="0.84" stop-color="#04376a"/><stop offset="1" stop-color="#036"/></linearGradient><linearGradient id="linear-gradient-2" x1="111.82" y1="239.89" x2="111.82" y2="125.96" gradientUnits="userSpaceOnUse"><stop offset="0" stop-color="#97c7ed"/><stop offset="0.17" stop-color="#9dcaee"/><stop offset="0.38" stop-color="#add3f1"/><stop offset="0.63" stop-color="#c8e2f6"/><stop offset="0.89" stop-color="#eef6fc"/><stop offset="1" stop-color="#fff"/></linearGradient><linearGradient id="linear-gradient-3" x1="115.13" y1="172.39" x2="115.13" y2="125.96" gradientUnits="userSpaceOnUse"><stop offset="0" stop-color="#99c467"/><stop offset="1" stop-color="#c0d267"/></linearGradient><linearGradient id="linear-gradient-4" x1="162.51" y1="234.13" x2="162.51" y2="165.26" gradientUnits="userSpaceOnUse"><stop offset="0" stop-color="#99c467"/><stop offset="0.02" stop-color="#9bc567"/><stop offset="0.36" stop-color="#afcc67"/><stop offset="0.68" stop-color="#bcd167"/><stop offset="1" stop-color="#c0d267"/></linearGradient><linearGradient id="linear-gradient-5" x1="22.37" y1="210.37" x2="22.37" y2="160.8" gradientUnits="userSpaceOnUse"><stop offset="0" stop-color="#99c467"/><stop offset="0.11" stop-color="#9fc667"/><stop offset="0.66" stop-color="#b7cf67"/><stop offset="1" stop-color="#c0d267"/></linearGradient></defs><title>Middel 1</title><g id="Laag_2" data-name="Laag 2"><g id="Laag_1-2" data-name="Laag 1"><path class="cls-1" d="M225.26,134.25c-.17,2.18-.41,4.33-.65,6.45a141,141,0,0,1-4.54,23q-1.55,5.49-3.49,10.49c-8.68,22.45-22.82,38.68-39.74,49.41a103,103,0,0,1-22.41,10.56c-23.68,7.86-50,7.45-73.57.21a138.44,138.44,0,0,1-45.27-24c-2.6-2.11-5.1-4.3-7.52-6.66A92.56,92.56,0,0,1,5.18,169.64c-.59-1.57-1.13-3.17-1.61-4.78A82.71,82.71,0,0,1,0,142C-.36,122.18,5.89,99.19,21.88,73c.31-.55.69-1.13,1-1.71,4.44-7.11,8.37-14,12-20.44.58-1.09,1.1-2.11,1.75-3.11C52.84,21.35,58.48,13.63,75.53,6.35c40.08-17.19,117.78-2,145.77,76.88C226.66,98.33,226.73,115.83,225.26,134.25Z"/><path class="cls-2" d="M14.49,106.39a1.78,1.78,0,1,1,1.78,1.79A1.78,1.78,0,0,1,14.49,106.39Z"/><path class="cls-3" d="M225.26,134.25c-.17,2.18-.41,4.33-.65,6.45a141,141,0,0,1-4.54,23q-1.55,5.49-3.49,10.49c-8.68,22.45-22.82,38.68-39.74,49.41a103,103,0,0,1-22.41,10.56c-23.68,7.86-50,7.45-73.57.21a138.44,138.44,0,0,1-45.27-24c-2.6-2.11-5.1-4.3-7.52-6.66A92.56,92.56,0,0,1,5.18,169.64c-.59-1.57-1.13-3.17-1.61-4.78A82.71,82.71,0,0,1,0,142C-.36,122.18,5.89,99.19,21.88,73A191,191,0,0,1,74.57,53.78h0a193.91,193.91,0,0,1,38.57-3.86A191.7,191.7,0,0,1,221.3,83.23C226.66,98.33,226.73,115.83,225.26,134.25Z"/><path class="cls-3" d="M224.62,140.72a142.27,142.27,0,0,1-4.54,23c-1,3.64-2.21,7.12-3.51,10.47-8.66,22.46-22.8,38.69-39.73,49.4a101.88,101.88,0,0,1-22.43,10.58c-23.68,7.87-50,7.44-73.56.19a138.27,138.27,0,0,1-45.26-23.95c-2.6-2.1-5.1-4.3-7.52-6.64A92.54,92.54,0,0,1,5.19,169.66c-.58-1.6-1.14-3.19-1.62-4.81A82.56,82.56,0,0,1,0,142.05,190.34,190.34,0,0,1,82.1,107.58h0c2.92-.48,5.87-.88,8.85-1.22a193.09,193.09,0,0,1,43.42-.11c2.95.32,5.87.72,8.8,1.17h0A190.53,190.53,0,0,1,224.62,140.72Z"/><path class="cls-4" d="M220.08,163.68c-1,3.64-2.21,7.12-3.51,10.47-8.66,22.46-22.8,38.69-39.73,49.4a101.88,101.88,0,0,1-22.43,10.58c-23.68,7.87-50,7.44-73.56.19a138.27,138.27,0,0,1-45.26-23.95c-2.6-2.1-5.1-4.3-7.52-6.64A92.54,92.54,0,0,1,5.19,169.66c-.58-1.6-1.14-3.19-1.62-4.81a170.71,170.71,0,0,1,75.29-35.56,178.68,178.68,0,0,1,21.44-2.9h.08c1.44-.1,2.85-.18,4.28-.24.32,0,.64,0,1,0,1.35-.08,2.68-.11,4-.13H110c1.76-.06,3.54-.06,5.29,0h0c1.38,0,2.76,0,4.12.1.37,0,.72,0,1.09.05,1.43.06,2.87.14,4.3.24h0c1.22.08,2.42.19,3.61.3s2.42.21,3.62.37,2.39.26,3.59.42,2.39.32,3.58.51A171.34,171.34,0,0,1,220.08,163.68Z"/><path class="cls-5" d="M142.79,161.94c-21,0-27,9.54-41.18,10.42S84,155.77,69.72,156.68c-10,.61-16.28-1.55-16.82-4.71-.44-2.33,2.23-5.16,8.7-7.86C88.43,133,78.85,129.28,78.85,129.28a179.8,179.8,0,0,1,21.54-2.9A175.44,175.44,0,0,1,139.26,128c-19.86,12.13,21,2.7,37.14,21.17a3.35,3.35,0,0,1,.67,1h0a2.88,2.88,0,0,1,.23.74C178.62,157,159.51,161.94,142.79,161.94Z"/><path class="cls-6" d="M216.57,174.15c-8.66,22.46-22.8,38.69-39.73,49.4a101.88,101.88,0,0,1-22.43,10.58c6.38-11.4-6.62-15-18-17.49-11.06-2.44-30-10-27.8-17.24a4.83,4.83,0,0,1,1-1.89c15.65-18.23,54.13-7.6,63.43-25.14C180.93,157.51,208.2,169.9,216.57,174.15Z"/><path class="cls-7" d="M35.59,210.37c-2.6-2.1-5.1-4.3-7.52-6.64A92.54,92.54,0,0,1,5.19,169.66c4.65-2.39,20.7-10,32.32-8.72,8.1.88-10.23,12-13.53,19.48a3.81,3.81,0,0,0-.27,3.38C26.82,190.28,45.72,186.53,35.59,210.37Z"/><circle class="cls-2" cx="33.27" cy="78.2" r="2.16"/><circle class="cls-2" cx="41.02" cy="49.18" r="1.79"/><path class="cls-2" d="M18.05,93.79A1.78,1.78,0,1,1,16.27,92,1.78,1.78,0,0,1,18.05,93.79Z"/><circle class="cls-2" cx="58.48" cy="31.42" r="1.79"/><circle class="cls-2" cx="71.34" cy="34.83" r="2.16"/><circle class="cls-2" cx="77.31" cy="17.77" r="1.79"/><circle class="cls-2" cx="92.7" cy="19.55" r="1.79"/><circle class="cls-2" cx="60.27" cy="45.74" r="3.45"/><circle class="cls-2" cx="165.84" cy="26.77" r="1.68"/><circle class="cls-2" cx="177.41" cy="44.66" r="3.45"/><circle class="cls-2" cx="213.26" cy="88.56" r="3.45"/><circle class="cls-2" cx="180.86" cy="104.98" r="1.37"/><circle class="cls-2" cx="194.67" cy="52.34" r="1.37"/><circle class="cls-2" cx="185.65" cy="75.96" r="1.75"/><circle class="cls-2" cx="200.83" cy="65.2" r="3.02"/><path class="cls-8" d="M143.29,43.84h0a42.57,42.57,0,0,0-61.43,0h0c-16.9,17.45-16.9,46,0,63.48l28.06,29a3.68,3.68,0,0,0,5.31,0l28.06-29C160.19,89.87,160.19,61.29,143.29,43.84Z"/><path class="cls-9" d="M156,75.89a45.45,45.45,0,0,1-12.67,31.45l-28.08,29a3.71,3.71,0,0,1-5.29,0l-28.08-29A45.7,45.7,0,0,1,69.18,75.59v-.24A46.6,46.6,0,0,0,80.67,95.71l29.19,30.17a3.87,3.87,0,0,0,5.57,0l29.19-30.17A47.18,47.18,0,0,0,156,75.89Z"/><circle class="cls-2" cx="112.57" cy="74.06" r="18.09"/><path class="cls-9" d="M142.79,161.94c-21,0-27,9.54-41.18,10.42S84,155.77,69.72,156.68c-10,.61-16.28-1.55-16.82-4.71,0,0,8.9,1.82,16.28,0S83.3,153.64,86,157.11a21.17,21.17,0,0,0,15,7.3c6.33.11,21.76-7.86,30-7.86s37.17.44,42.56-2.63c2.63-1.52,3.54-2.43,3.74-3C178.62,157,159.51,161.94,142.79,161.94Z"/><path class="cls-9" d="M154.41,234.13c6.38-11.4-6.62-15-18-17.49-11.06-2.44-30-10-27.8-17.24,0,0,6.51,10,27.4,9.67,17.83-.24,39.86.34,40.82,14.48A101.88,101.88,0,0,1,154.41,234.13Z"/><path class="cls-9" d="M35.59,210.37c-2.6-2.1-5.1-4.3-7.52-6.64,3-2.63,8.24-7.82,6.75-10.84-2-4.15-8.69-3.78-10.87-6.3s0-6.17,0-6.17h0a3.81,3.81,0,0,0-.27,3.38C26.82,190.28,45.72,186.53,35.59,210.37Z"/></g></g></svg>