<svg xmlns="http://www.w3.org/2000/svg" xmlns:xlink="http://www.w3.org/1999/xlink" viewBox="0 0 58.19 70.42"><defs><style>.cls-1{fill:url(#linear-gradient);}.cls-2{fill:#fff;opacity:0.2;}.cls-3{fill:url(#linear-gradient-2);}.cls-4{fill:#036;}.cls-5{fill:url(#linear-gradient-3);}.cls-6{fill:url(#linear-gradient-4);}.cls-7{fill:url(#linear-gradient-5);}.cls-8{fill:#ecf2fe;}.cls-9{fill:#f27b43;}.cls-10{fill:url(#linear-gradient-6);}.cls-11{fill:#2e434d;}.cls-12{fill:url(#linear-gradient-7);}</style><linearGradient id="linear-gradient" x1="29.1" y1="69.81" x2="29.1" y2="-0.61" gradientUnits="userSpaceOnUse"><stop offset="0" stop-color="#97c7ed"/><stop offset="0.45" stop-color="#99c8ed"/><stop offset="0.61" stop-color="#a0ccee"/><stop offset="0.72" stop-color="#abd2f1"/><stop offset="0.81" stop-color="#bcdbf3"/><stop offset="0.89" stop-color="#d2e7f7"/><stop offset="0.96" stop-color="#edf5fc"/><stop offset="1" stop-color="#fff"/></linearGradient><linearGradient id="linear-gradient-2" x1="15.3" y1="50.75" x2="17.18" y2="26.57" gradientUnits="userSpaceOnUse"><stop offset="0" stop-color="#97c7ed"/><stop offset="0.03" stop-color="#a5ceef"/><stop offset="0.11" stop-color="#c1ddf4"/><stop offset="0.2" stop-color="#d8eaf8"/><stop offset="0.31" stop-color="#e9f3fb"/><stop offset="0.43" stop-color="#f6fafd"/><stop offset="0.6" stop-color="#fdfeff"/><stop offset="1" stop-color="#fff"/></linearGradient><linearGradient id="linear-gradient-3" x1="46.08" y1="39.42" x2="26.63" y2="5.73" gradientUnits="userSpaceOnUse"><stop offset="0" stop-color="#036"/><stop offset="0.13" stop-color="#06396b"/><stop offset="0.3" stop-color="#16497a"/><stop offset="0.5" stop-color="#316392"/><stop offset="0.71" stop-color="#5788b4"/><stop offset="0.93" stop-color="#87b7df"/><stop offset="1" stop-color="#97c7ed"/></linearGradient><linearGradient id="linear-gradient-4" x1="36.21" y1="71.39" x2="5.02" y2="17.35" xlink:href="#linear-gradient-3"/><linearGradient id="linear-gradient-5" x1="30.06" y1="70.25" x2="33.17" y2="68.21" gradientUnits="userSpaceOnUse"><stop offset="0" stop-color="#ffdcc5"/><stop offset="0.25" stop-color="#fed8c1"/><stop offset="0.5" stop-color="#fbceb4"/><stop offset="0.76" stop-color="#f6bca0"/><stop offset="1" stop-color="#efa586"/></linearGradient><linearGradient id="linear-gradient-6" x1="2320.6" y1="40" x2="2329.67" y2="38.52" gradientTransform="matrix(-1, 0, 0, 1, 2372.99, 0)" gradientUnits="userSpaceOnUse"><stop offset="0" stop-color="#efa586"/><stop offset="0.38" stop-color="#f7bfa4"/><stop offset="0.76" stop-color="#fdd4bc"/><stop offset="1" stop-color="#ffdcc5"/></linearGradient><linearGradient id="linear-gradient-7" x1="2323.44" y1="33.81" x2="2336.28" y2="32.18" gradientTransform="matrix(-1, 0, 0, 1, 2372.99, 0)" gradientUnits="userSpaceOnUse"><stop offset="0" stop-color="#efa586"/><stop offset="0.06" stop-color="#f1ad8f"/><stop offset="0.26" stop-color="#f7c2a7"/><stop offset="0.48" stop-color="#fcd0b8"/><stop offset="0.71" stop-color="#fed9c2"/><stop offset="1" stop-color="#ffdcc5"/></linearGradient></defs><title>Middel 3</title><g id="Laag_2" data-name="Laag 2"><g id="Layer_1" data-name="Layer 1"><path class="cls-1" d="M58.19,44.8v0c-.11,6-1.24,10.8-4.13,14.58a20.54,20.54,0,0,1-6.68,5.52A45.12,45.12,0,0,1,37,68.84c-.74.19-1.52.39-2.32.57l-.55.13c-.6.13-1.2.25-1.79.35-.82.15-1.65.26-2.45.35C19,71.38,10.19,66.94,5,59.21c-.37-.56-.73-1.14-1.06-1.74A30.38,30.38,0,0,1,.4,47h0A36.88,36.88,0,0,1,0,41.63v-.14c0-.69,0-1.38.05-2.05q.06-1.59.24-3.12A42.13,42.13,0,0,1,1.22,31,39.61,39.61,0,0,1,8.35,16.08c.33-.42.66-.83,1-1.23A42.35,42.35,0,0,1,35.93.36l1-.11A39.27,39.27,0,0,1,41.39,0c9,0,12.82,2.74,14.43,7.43,2.07,6,.54,15.19,1.69,25.89A96.08,96.08,0,0,1,58.19,44.8Z"/><path class="cls-2" d="M55.82,7.43A58.32,58.32,0,0,1,4,57.47a32.29,32.29,0,0,1-4-16A44.56,44.56,0,0,1,1.22,31,39.61,39.61,0,0,1,8.35,16.08c.33-.42.66-.83,1-1.23A42.35,42.35,0,0,1,35.93.36l1-.11A39.27,39.27,0,0,1,41.39,0C50.4,0,54.21,2.74,55.82,7.43Z"/><path class="cls-2" d="M30,1.6A50.85,50.85,0,0,1,1.22,31,39.61,39.61,0,0,1,8.35,16.08c.33-.42.66-.83,1-1.23A41.72,41.72,0,0,1,30,1.6Z"/><path class="cls-3" d="M29.42,46.23l-9.79-2.64a2.28,2.28,0,0,1-1.61.52A1.11,1.11,0,0,1,17,43v-.09l-3.87-1S9.43,44.5,8.38,45c-.71.33-5.23,1.37-8,2A36.88,36.88,0,0,1,0,41.63a16.75,16.75,0,0,1,3.47-1.88L.05,39.44q.06-1.59.24-3.12l10.65-.7s6.58-4.69,9.14-5.74A15.94,15.94,0,0,1,24.2,29h.1l.44,0,.34,0,.65,0h.51c1.27.06,2.21.35,2.25,1,.1,1.57-5.23,6.53-9.61,8.78A82.74,82.74,0,0,1,31.77,45S32.71,45.92,29.42,46.23Z"/><path class="cls-4" d="M23.43,32c1.61-1.26,1.63-2.48,1.37-2.77a.7.7,0,0,0-.6-.22h0a14.31,14.31,0,0,1,2-.06l.05.06C27.21,30.08,24.25,32.13,23.43,32Z"/><ellipse class="cls-4" cx="19.1" cy="35.2" rx="0.49" ry="0.61"/><ellipse class="cls-4" cx="16.91" cy="36.74" rx="0.49" ry="0.61"/><ellipse class="cls-4" cx="15.09" cy="38.16" rx="0.49" ry="0.61"/><path class="cls-5" d="M36.92.25V44.71l-1,.42V.36Z"/><path class="cls-6" d="M53.43,59.35v.08a33.65,33.65,0,0,1-4.54,4.39c-.49.39-1,.76-1.51,1.12A45.12,45.12,0,0,1,37,68.84c-.74.19-1.52.39-2.32.57l-.55.13c-.6.13-1.2.25-1.79.35-.82.15-1.65.26-2.45.35C19,71.38,10.19,66.94,5,59.21l3.33-.29V16.08c.33-.42.66-.83,1-1.23v44L30.06,57l2.75-.87Z"/><path class="cls-7" d="M34.72,69.41l-.55.13c-.6.13-1.34-.05-1.79.35-.82.15-1.65.26-2.45.35V68.11l2.42.66Z"/><path class="cls-8" d="M37.33,44.4,37,68.84c-.74.19-1.52.39-2.32.57l-4.79-1.3C28.33,45,37.33,44.4,37.33,44.4Z"/><path class="cls-9" d="M58.19,44.84c-.11,6-1.24,10.8-4.13,14.58-3.48,4.56-9.49,7.71-19.34,10l-.55.13c-.6.13-1.2.25-1.79.35l0-1.12h0c-.18-9,.66-15.73,1.43-18.53.86-3.17,2.07-5.23,3-5.73h0s0,0,0,0a2.71,2.71,0,0,1,1.39-.27l4.63-.05h0l3.78,0h0L54.25,44a7.2,7.2,0,0,1,2,.15h.08A8,8,0,0,1,58.19,44.84Z"/><path class="cls-10" d="M40.71,40.07l-.41,2.27,4.3,3,8.1-4.63a20.24,20.24,0,0,0-1.3-5.6l-2-2.17Z"/><path class="cls-11" d="M51.4,35.09s4.33-3.83,4.6-7.6-2.57-4.26-2.57-4.26.22-5.45-4.93-7.1-17.7,3.6-18.34,5.75c-.52,1.74,4.25.8,4.25.8s-1.83.81-1.48,1.41,2.47.37,2.47.37-.72.43-.6,1c.2.94,3.81,1.65,3.81,1.65Z"/><path class="cls-12" d="M38.61,27.13a17.35,17.35,0,0,0-1,4.27,46.33,46.33,0,0,0,.67,6.7c-.06,1,.36,2.1,1.32,2a13.78,13.78,0,0,0,6.9-2.38,11.43,11.43,0,0,0,2.9-4.85,2.82,2.82,0,0,0,2.4-1.35c.65-1.35.25-2.9-.5-2.75a7,7,0,0,0-2.12,1.49,16.94,16.94,0,0,1-2.27-4.46A22.59,22.59,0,0,1,38.61,27.13Z"/><path class="cls-8" d="M40.3,42.34a2.5,2.5,0,0,0-.81.61c-.37.42-1.06.56-1.21,1.24s1.31,4,2.46,4,3.86-2.89,3.86-2.89Z"/><path class="cls-8" d="M52.7,40.69a.89.89,0,0,1,.63.23A8,8,0,0,1,54.25,44c-.15.58-4.58,5.54-5.88,5.54s-3.77-4.26-3.77-4.26Z"/><path class="cls-8" d="M58.19,44.8v0c-.11,6-1.24,10.8-4.13,14.58-2.39-7.69.76-14.74,2.2-15.23h.08A5.5,5.5,0,0,1,58.19,44.8Z"/></g></g></svg>