<svg xmlns="http://www.w3.org/2000/svg" xmlns:xlink="http://www.w3.org/1999/xlink" viewBox="0 0 213.76 250"><defs><style>.cls-1{fill:url(#linear-gradient);}.cls-12,.cls-2,.cls-3{fill:#fff;}.cls-2{opacity:0.1;}.cls-3{opacity:0.2;}.cls-4{fill:url(#linear-gradient-2);}.cls-5{fill:url(#linear-gradient-3);}.cls-6{fill:url(#linear-gradient-4);}.cls-7{fill:#ffde17;}.cls-8{fill:#f27b43;}.cls-9{fill:#ecf2fe;}.cls-10{fill:#036;}.cls-11{fill:url(#linear-gradient-5);}.cls-13{fill:url(#linear-gradient-6);}.cls-14{fill:#f8fbff;}</style><linearGradient id="linear-gradient" x1="173.24" y1="233.27" x2="54.62" y2="27.81" gradientUnits="userSpaceOnUse"><stop offset="0" stop-color="#036"/><stop offset="1" stop-color="#97c7ed"/></linearGradient><linearGradient id="linear-gradient-2" x1="983.61" y1="1170.3" x2="924.87" y2="1207.48" gradientTransform="translate(1347.23 -789.57) rotate(90)" gradientUnits="userSpaceOnUse"><stop offset="0" stop-color="#efa586"/><stop offset="0.36" stop-color="#f0a789"/><stop offset="0.57" stop-color="#f2af91"/><stop offset="0.74" stop-color="#f5bb9f"/><stop offset="0.9" stop-color="#fbcdb3"/><stop offset="1" stop-color="#ffdcc5"/></linearGradient><linearGradient id="linear-gradient-3" x1="930.09" y1="1278.63" x2="871.35" y2="1315.81" xlink:href="#linear-gradient-2"/><linearGradient id="linear-gradient-4" x1="62.25" y1="110.09" x2="79.78" y2="46.4" gradientTransform="translate(75.83 -27.53) rotate(45)" gradientUnits="userSpaceOnUse"><stop offset="0" stop-color="#8dd1fa"/><stop offset="0" stop-color="#8dd0f9"/><stop offset="0.07" stop-color="#7aacd1"/><stop offset="0.14" stop-color="#6b8daf"/><stop offset="0.23" stop-color="#5d7291"/><stop offset="0.32" stop-color="#525c79"/><stop offset="0.42" stop-color="#494b66"/><stop offset="0.54" stop-color="#433f59"/><stop offset="0.69" stop-color="#403851"/><stop offset="1" stop-color="#3f364f"/></linearGradient><linearGradient id="linear-gradient-5" x1="69.16" y1="148.39" x2="29.15" y2="79.09" gradientUnits="userSpaceOnUse"><stop offset="0" stop-color="#efa586"/><stop offset="1" stop-color="#ffdcc5"/></linearGradient><linearGradient id="linear-gradient-6" x1="190.11" y1="203.3" x2="144.9" y2="125" gradientUnits="userSpaceOnUse"><stop offset="0" stop-color="#efa586"/><stop offset="0.25" stop-color="#f0a98a"/><stop offset="0.5" stop-color="#f3b397"/><stop offset="0.76" stop-color="#f8c5ab"/><stop offset="1" stop-color="#ffdcc5"/></linearGradient></defs><title>Middel 2</title><g id="Laag_2" data-name="Laag 2"><g id="Laag_1-2" data-name="Laag 1"><path class="cls-1" d="M213.76,132c0,2.88-.06,5.72-.22,8.6a13.87,13.87,0,0,1-.1,1.68,15.16,15.16,0,0,1-.09,1.64c-1.23,19-5.5,37.36-12.87,53.23,0,.09-.09.19-.12.28-.73,1.55-1.46,3-2.25,4.52-.85,1.71-1.77,3.38-2.75,5-8.5,14.53-20.07,26.26-34.73,33.4-10,4.87-24.67,9.66-37.57,9.66-23.83,0-45.78-11.36-67.37-26.31a147.56,147.56,0,0,1-37.83-38C9.13,172.7,3.07,158.48.92,143.88A79.35,79.35,0,0,1,0,132v-.34c0-1.33.06-2.66.13-4,0-.88.09-1.77.19-2.65,0-.48.09-1,.12-1.43,0,0,0,0,0-.06,0-.32.07-.63.1-.95v-.06c0-.1,0-.19,0-.28,0-.26.06-.48.1-.73s0-.38.06-.57v-.06s0,0,0,0c0-.31.09-.63.13-.94.12-.86.25-1.74.41-2.6v-.15c.09-.38.16-.76.25-1.14s.16-1,.25-1.46.13-.69.22-1,.13-.6.19-.88c.1-.44.19-.89.32-1.33.19-.85.38-1.74.63-2.59s.41-1.49.6-2.25c0-.12.07-.22.1-.31.25-.92.54-1.8.82-2.69v0c.06-.19.13-.38.19-.57s.09-.28.13-.41c.12-.41.25-.82.41-1.23.06-.19.12-.35.19-.54a2.54,2.54,0,0,1,.15-.44l.48-1.46,0,0c1-2.75,2.09-5.5,3.29-8.25,0,0,0-.06,0-.09h0c.79-1.8,1.61-3.6,2.5-5.37.38-.8.76-1.55,1.17-2.31s.76-1.52,1.17-2.28c.31-.6.63-1.2,1-1.8,1-1.8,2-3.6,3.09-5.37,0,0,0-.07.07-.1s.19-.28.28-.44c.51-.79,1-1.58,1.49-2.4a5.69,5.69,0,0,0,.41-.63c.5-.83,1-1.65,1.58-2.44s1-1.55,1.58-2.34,1-1.45,1.52-2.15c0,0,0-.06.06-.09a.09.09,0,0,0,0-.06v0c.82-1.1,1.64-2.24,2.5-3.38.41-.54.82-1.1,1.26-1.64,0,0,0-.06.06-.1.42-.53.86-1.1,1.3-1.64.6-.79,1.2-1.55,1.83-2.31l1.74-2.08c.07-.1.13-.19.19-.26s.1-.12.16-.19a.73.73,0,0,0,.13-.09,1,1,0,0,1,.22-.25c.12-.16.25-.29.35-.45.28-.31.56-.66.85-1,1-1.1,1.89-2.15,2.87-3.22.79-.88,1.62-1.74,2.41-2.59.5-.57,1-1.11,1.58-1.65a3,3,0,0,1,.38-.34,2.59,2.59,0,0,1,.5-.54c.57-.6,1.14-1.17,1.74-1.71l.79-.79c.82-.82,1.71-1.64,2.56-2.43.41-.38.79-.76,1.2-1.11,1.46-1.32,2.91-2.62,4.4-3.88l1.7-1.43c.22-.22.48-.41.7-.6a2.27,2.27,0,0,0,.31-.25c.79-.63,1.55-1.26,2.34-1.87.22-.18.48-.37.7-.53,1-.79,2-1.55,3-2.28.82-.63,1.68-1.23,2.5-1.83,1.2-.85,2.4-1.71,3.63-2.5l.26-.19c.22-.16.47-.31.72-.47a10.92,10.92,0,0,1,1-.63c.32-.23.67-.45,1-.67.79-.5,1.58-1,2.41-1.48s1.7-1,2.56-1.52a1.57,1.57,0,0,1,.44-.25L80,13.18c.82-.44,1.61-.88,2.43-1.29s1.77-.92,2.66-1.36c.09,0,.19-.1.28-.13.92-.44,1.8-.88,2.72-1.29.25-.13.51-.22.79-.35.92-.41,1.83-.82,2.78-1.2.48-.22,1-.41,1.46-.63,0,0,.09,0,.12,0,.6-.25,1.2-.47,1.8-.69.32-.13.6-.25.89-.35s.63-.22,1-.35l1.61-.57c1-.34,2-.69,3.1-1s2-.6,2.94-.85,1.89-.51,2.84-.73a.14.14,0,0,0,.1,0l1.83-.41.88-.19,1.84-.38c.31-.06.66-.13,1-.16s.5-.09.72-.12a2.65,2.65,0,0,1,.48-.07c.35-.06.73-.12,1.07-.15.7-.13,1.39-.19,2.06-.29,1-.13,1.86-.22,2.78-.28,2-.16,4.11-.26,6.13-.26,19.15,0,35.12,7.68,47.89,20.11,21.36,20.7,33.94,54.55,38.05,87.71A192.12,192.12,0,0,1,213.76,132Z"/><path class="cls-2" d="M212.22,107.83l-152.59-81C78.4,12,99.62,2,120.15.26c2-.17,4.11-.26,6.13-.26,19.14,0,35.11,7.69,47.89,20.1C195.51,40.8,208.09,74.66,212.22,107.83Z"/><path class="cls-2" d="M200.48,197.11c0,.09-.09.19-.12.28-.73,1.55-1.46,3-2.25,4.52-.85,1.71-1.77,3.38-2.75,5-8.5,14.53-20.07,26.26-34.73,33.4l-71-83.44L47.51,107.31l-29-34.07s0-.07.07-.1.19-.28.28-.44c.51-.79,1-1.58,1.49-2.4a5.69,5.69,0,0,0,.41-.63c.5-.83,1-1.65,1.58-2.44s1-1.55,1.58-2.34,1-1.45,1.52-2.15c0,0,0-.06.06-.09a.09.09,0,0,0,0-.06v0c.82-1.1,1.64-2.24,2.5-3.38.41-.54.82-1.1,1.26-1.64,0,0,0-.06.06-.1.42-.53.86-1.1,1.3-1.64.6-.79,1.2-1.55,1.83-2.31l1.74-2.08c.07-.1.13-.19.19-.26a3.69,3.69,0,0,1,.35-.34.56.56,0,0,1,.16-.19c.12-.16.25-.29.35-.45.28-.31.56-.66.85-1,1-1.1,1.89-2.15,2.87-3.22l37.84,35.4,48.29,45.2,18.46,17.32,41.47,38.81,3.07,2.88Z"/><path class="cls-3" d="M174.16,20.11a189.33,189.33,0,0,1-16.82,58.56,191.31,191.31,0,0,1-32.18,47.89A191.64,191.64,0,0,1,89.67,156.9,190.17,190.17,0,0,1,34.39,182c-5.41,1.48-10.94,2.72-16.53,3.73C9.13,172.7,3.07,158.48.92,143.88A79.35,79.35,0,0,1,0,132v-.34c0-1.33.06-2.66.13-4,0-.88.09-1.77.19-2.65,0-.48.09-1,.12-1.43s.07-.66.13-1v-.06c0-.1,0-.19,0-.28,0-.26.06-.48.1-.73s0-.38.06-.57v-.06a9.07,9.07,0,0,1,.16-1c.12-.86.25-1.74.41-2.6v-.15c.16-.86.31-1.74.5-2.6.07-.34.13-.69.22-1s.13-.6.19-.88c.1-.44.19-.89.32-1.33.19-.85.38-1.74.63-2.59s.41-1.49.6-2.25c0-.12.07-.22.1-.31.25-.92.54-1.8.82-2.69v0c.06-.19.13-.38.19-.57s.09-.28.13-.41c.12-.41.25-.82.41-1.23.06-.19.12-.35.19-.54a2.54,2.54,0,0,1,.15-.44l.48-1.46,0,0c1-2.75,2.09-5.5,3.29-8.25,0,0,0-.06,0-.09h0c.79-1.8,1.61-3.6,2.5-5.37.38-.8.76-1.55,1.17-2.31s.76-1.52,1.17-2.28c.31-.6.63-1.2,1-1.8,1-1.8,2-3.6,3.09-5.37,0,0,0-.07.07-.1s.19-.28.28-.44c.51-.79,1-1.58,1.49-2.4.12-.22.25-.41.38-.63h0a2.17,2.17,0,0,0,.12-.26c.48-.72.95-1.45,1.46-2.18s1-1.55,1.58-2.34,1-1.45,1.52-2.15c0-.06,0-.09.09-.15v0c.82-1.1,1.64-2.24,2.5-3.38.41-.54.82-1.1,1.26-1.64,0,0,0-.06.06-.1.42-.53.86-1.1,1.3-1.64.6-.79,1.2-1.55,1.83-2.31l1.74-2.08c.07-.1.13-.19.19-.26s.1-.12.16-.19a8.6,8.6,0,0,1,.7-.79c.28-.31.56-.66.85-1,1-1.1,1.89-2.15,2.87-3.22.79-.88,1.62-1.74,2.41-2.59.5-.57,1-1.11,1.58-1.65a3,3,0,0,1,.38-.34,2.59,2.59,0,0,1,.5-.54c.57-.6,1.14-1.17,1.74-1.71l.79-.79c.82-.82,1.71-1.64,2.56-2.43.41-.38.79-.76,1.2-1.11,1.46-1.32,2.91-2.62,4.4-3.88l1.7-1.43c.22-.22.48-.41.7-.6a2.27,2.27,0,0,0,.31-.25c.79-.63,1.55-1.26,2.34-1.87.22-.18.48-.37.7-.53,1-.79,2-1.55,3-2.28.82-.63,1.68-1.23,2.5-1.83,1.2-.85,2.4-1.71,3.63-2.5l.26-.19c.22-.16.47-.31.72-.47a10.92,10.92,0,0,1,1-.63c.32-.23.67-.45,1-.67.79-.5,1.58-1,2.41-1.48s1.7-1,2.56-1.52a1.57,1.57,0,0,1,.44-.25L80,13.18c.82-.44,1.61-.88,2.43-1.29s1.77-.92,2.66-1.36c.09,0,.19-.1.28-.13.92-.44,1.8-.88,2.72-1.29.25-.13.51-.22.79-.35.92-.41,1.83-.82,2.78-1.2.48-.22,1-.41,1.46-.63,0,0,.09,0,.12,0,.6-.25,1.2-.47,1.8-.69.32-.13.6-.25.89-.35s.63-.22,1-.35l1.61-.57c1-.34,2-.69,3.1-1s2-.6,2.94-.85,1.89-.51,2.84-.73a.14.14,0,0,0,.1,0l1.83-.41.88-.19,1.84-.38c.31-.06.66-.13,1-.16s.5-.09.72-.12a2.65,2.65,0,0,1,.48-.07c.35-.06.73-.12,1.07-.15.7-.13,1.39-.19,2.06-.29,1-.13,1.86-.22,2.78-.28,2-.16,4.11-.26,6.13-.26C145.42,0,161.39,7.68,174.16,20.11Z"/><path class="cls-3" d="M120.14.26a183.84,183.84,0,0,1-19.31,48.39,184.13,184.13,0,0,1-24,32.71c-2.85,3.1-5.79,6.13-8.85,9a182.12,182.12,0,0,1-20.51,16.94c-2.31,1.64-4.65,3.22-7,4.77-.76.51-1.52,1-2.28,1.46-1.36.85-2.75,1.7-4.17,2.49-.44.29-.89.54-1.36.79-.92.54-1.83,1.08-2.78,1.58q-2.32,1.34-4.74,2.56c-1,.51-2,1.05-3.07,1.49-.79.44-1.58.82-2.4,1.2-1.11.54-2.21,1-3.35,1.52,0,.06,0,0,0,0-1,.44-1.87.85-2.82,1.26-2.05.89-4.1,1.71-6.16,2.5-2.4.95-4.83,1.83-7.3,2.66,0-1.33.06-2.66.13-4,0-.88.09-1.77.19-2.65,0-.48.09-1,.12-1.43,0,0,0,0,0-.06,0-.32.07-.63.1-.95v-.06c0-.1,0-.19,0-.28,0-.26.06-.48.1-.73l.09-.67c0-.31.09-.63.13-.94.12-.86.25-1.74.41-2.6v-.15c.09-.38.16-.76.25-1.14.13-.82.28-1.65.47-2.47.07-.31.13-.6.19-.88.1-.44.19-.89.32-1.33.19-.85.38-1.74.63-2.59s.41-1.49.6-2.25c0-.12.07-.22.1-.31.25-.92.54-1.8.82-2.69v0c.06-.19.13-.38.19-.57s.09-.28.13-.41c.12-.41.25-.82.41-1.23.06-.19.12-.35.19-.54a2.54,2.54,0,0,1,.15-.44l.48-1.46,0,0c1-2.75,2.09-5.5,3.29-8.25,0,0,0-.06.06-.09.79-1.8,1.61-3.6,2.5-5.37.38-.8.76-1.55,1.17-2.31s.76-1.52,1.17-2.28c.31-.6.63-1.2,1-1.8,1-1.8,2-3.6,3.09-5.37,0,0,0-.07.07-.1s.19-.28.28-.44c.51-.79,1-1.58,1.49-2.4.12-.22.25-.41.38-.63a1.16,1.16,0,0,0,.15-.26c.48-.72.95-1.45,1.46-2.18s1-1.55,1.58-2.34,1-1.45,1.52-2.15c0-.06,0-.09.09-.15v0c.82-1.1,1.64-2.24,2.5-3.38.41-.54.82-1.1,1.26-1.64,0,0,0-.06.06-.1.42-.53.86-1.1,1.3-1.64.6-.79,1.2-1.55,1.83-2.31l1.74-2.08c.16-.19.32-.38.48-.54a1,1,0,0,1,.22-.25c.12-.16.25-.29.35-.45.28-.31.56-.66.85-1,1-1.1,1.89-2.15,2.87-3.22.79-.88,1.62-1.74,2.41-2.59.66-.67,1.29-1.33,2-2s1.48-1.52,2.24-2.25l.79-.79c.82-.82,1.71-1.64,2.56-2.43.41-.38.79-.76,1.2-1.11,1.46-1.32,2.91-2.62,4.4-3.88l1.7-1.43c.22-.22.48-.41.7-.6a2.27,2.27,0,0,0,.31-.25c.79-.63,1.55-1.26,2.34-1.87.22-.18.48-.37.7-.53,1-.79,2-1.55,3-2.28.82-.63,1.68-1.23,2.5-1.83,1.2-.85,2.4-1.71,3.63-2.5l.26-.19c.22-.16.47-.31.72-.47a10.92,10.92,0,0,1,1-.63c.32-.23.67-.45,1-.67.79-.5,1.58-1,2.41-1.48s1.7-1,2.56-1.52a1.57,1.57,0,0,1,.44-.25L80,13.18c.82-.44,1.61-.88,2.43-1.29s1.77-.92,2.66-1.36c.09,0,.19-.1.28-.13.92-.44,1.8-.88,2.72-1.29.25-.13.51-.22.79-.35.92-.41,1.83-.82,2.78-1.2.48-.22,1-.41,1.46-.63,0,0,.09,0,.12,0,.6-.25,1.2-.47,1.8-.69.32-.13.6-.25.89-.35s.63-.22,1-.35l1.61-.57c1-.34,2-.69,3.1-1s2-.6,2.94-.85,1.89-.51,2.84-.73a.14.14,0,0,0,.1,0l1.83-.41.88-.19,1.84-.38c.31-.06.66-.13,1-.16s.5-.09.72-.12a2.65,2.65,0,0,1,.48-.07c.35-.06.73-.12,1.07-.15.7-.13,1.39-.19,2.06-.29C118.31.41,119.22.32,120.14.26Z"/><path class="cls-2" d="M55.69,223.69a147.56,147.56,0,0,1-37.83-38C9.13,172.7,3.07,158.48.92,143.88A79.35,79.35,0,0,1,0,132v-.34c0-1.33.06-2.66.13-4,0-.88.09-1.77.19-2.65,0-.48.09-1,.12-1.43,0,0,0,0,0-.06,0-.32.07-.63.1-.95v-.06c0-.1,0-.19,0-.28,0-.26.06-.48.1-.73s0-.38.06-.57v-.06s0,0,0,0c0-.31.09-.63.13-.94.12-.86.25-1.74.41-2.6L7.3,129,15,143.88,34.39,182Z"/><path class="cls-4" d="M143.29,197.41V146.93s0-12,19.05-12,19,12,19,12v50.48Z"/><path class="cls-5" d="M35,143.9V93.41s0-12,19-12,19.05,12,19.05,12V143.9Z"/><rect class="cls-6" x="51.6" y="46.36" width="39.09" height="62.83" rx="3" ry="3" transform="translate(-34.16 73.09) rotate(-45)"/><rect class="cls-7" x="50.56" y="57.2" width="10.22" height="10.22" rx="2.73" ry="2.73" transform="translate(-27.75 57.62) rotate(-45)"/><path class="cls-8" d="M98.79,84.59l-6.1-6.1a6,6,0,0,0-8.48,0h0L94.54,88.84a1.37,1.37,0,0,0,1.93,0l2.32-2.32A1.35,1.35,0,0,0,98.79,84.59Z"/><path class="cls-9" d="M132.88,159.34l-23.09-23.07a6.66,6.66,0,0,1,0-9.4l35-35a13.55,13.55,0,0,1,15.69-2.51,10.11,10.11,0,0,0,14.38,14.17,13.54,13.54,0,0,1-2.3,16.11L164,128.23l-1.18,1.16Z"/><path class="cls-10" d="M136.8,103.38,135,101.62l1.16-1.16h0l1.76,1.76a.82.82,0,0,1,0,1.16A.81.81,0,0,1,136.8,103.38Z"/><path class="cls-10" d="M144.91,110.31a.82.82,0,0,0,0-1.16l-3.47-3.47a.83.83,0,0,0-1.18,0,.88.88,0,0,0-.24.58.91.91,0,0,0,.24.6l3.47,3.45A.81.81,0,0,0,144.91,110.31Zm6.91,6.93a.81.81,0,0,0,0-1.18l-3.45-3.45a.81.81,0,0,0-1.18,0,.84.84,0,0,0-.24.58.93.93,0,0,0,.24.6l3.47,3.45A.79.79,0,0,0,151.82,117.24Zm6.93,6.93a.81.81,0,0,0,0-1.18l-3.45-3.45a.81.81,0,0,0-1.18,0,.76.76,0,0,0-.24.58.84.84,0,0,0,.24.6l3.47,3.45A.79.79,0,0,0,158.75,124.17Z"/><path class="cls-10" d="M162.81,129.39l-1.76-1.76a.77.77,0,0,1-.25-.58.76.76,0,0,1,.25-.58.81.81,0,0,1,1.18,0l1.76,1.76Z"/><path class="cls-11" d="M105.13,99.6a8.49,8.49,0,0,1-2.28,6.1A11.63,11.63,0,0,1,97,108.51a12.42,12.42,0,0,1-2.34.29H86.32a6.76,6.76,0,0,1,3.85,3.69,6.64,6.64,0,0,1,.42,2.37,6.11,6.11,0,0,1-1.17,3.7,8.43,8.43,0,0,1-5,3A5.92,5.92,0,0,1,86.48,125,7.87,7.87,0,0,1,86.7,127c0,5.18-3.83,6.57-5.94,6.95a6,6,0,0,1,.85,2.85l0,.09v.54a5.85,5.85,0,0,1-3.6,5.82,8.8,8.8,0,0,1-2.4.63l-.6,0H.92A79.35,79.35,0,0,1,0,132v-.34c0-1.33.06-2.66.13-4,0-.88.09-1.77.19-2.65,0-.48.09-1,.12-1.43s.07-.66.13-1v-.06c0-.1,0-.19,0-.28,0-.26.06-.48.1-.73s0-.38.06-.57v-.06a9.07,9.07,0,0,1,.16-1c.12-.86.25-1.74.41-2.6v-.15c.16-.86.31-1.74.5-2.6.07-.34.13-.69.22-1s.13-.6.19-.88c.1-.44.19-.89.32-1.33.19-.85.38-1.74.63-2.59s.41-1.49.6-2.25c0-.12.07-.22.1-.31.25-.92.54-1.8.82-2.69v0c.06-.19.13-.38.19-.57s.09-.28.13-.41c.12-.41.25-.82.41-1.23.06-.19.12-.35.19-.54a2.54,2.54,0,0,1,.15-.44l.48-1.46,0,0c1-2.75,2.09-5.5,3.29-8.25,0,0,0-.06,0-.09H94.69a10.8,10.8,0,0,1,1.62.16h0C99.25,91,105.13,92.68,105.13,99.6Z"/><rect class="cls-10" x="16.28" y="90.38" width="8.86" height="53.51"/><path class="cls-7" d="M20.71,105a11.94,11.94,0,0,0-11.6,9.15c-1.37.21-1.69,1.38-1.69,2.8s.32,2.6,1.69,2.81A11.94,11.94,0,1,0,20.71,105Z"/><circle class="cls-12" cx="20.71" cy="116.98" r="9.28"/><path class="cls-10" d="M26.18,112.1l-.58-.59-4.31,4.31a1.28,1.28,0,0,0-.58-.15,1.26,1.26,0,0,0-.78.28l-3-2.09-.47.69,3,2.08a1.45,1.45,0,0,0-.07.35A1.32,1.32,0,0,0,22,117a1.42,1.42,0,0,0-.15-.58Z"/><path class="cls-13" d="M213.35,143.88c-1.23,19-5.5,37.36-12.87,53.23,0,.09-.09.19-.12.28H135.18l-.6,0c-1.64-.19-6-1.17-6-6.45v-.54l0-.09a5.85,5.85,0,0,1,.85-2.85c-2.12-.38-5.94-1.77-5.94-7a7.11,7.11,0,0,1,.22-1.93,5.86,5.86,0,0,1,2.09-3.47,8.47,8.47,0,0,1-5-3,6.11,6.11,0,0,1-1.17-3.7,6.24,6.24,0,0,1,4.27-6.06h-8.38s-10.43,0-10.43-9.2c0-6.92,5.88-8.63,8.79-9.07h0a10.73,10.73,0,0,1,1.61-.16Z"/><path class="cls-14" d="M213.44,142.24a15.16,15.16,0,0,1-.09,1.64c-1.23,19-5.5,37.36-12.87,53.23,0,.09-.09.19-.12.28-.73,1.55-1.46,3-2.25,4.52h-13V142.24Z"/><path class="cls-8" d="M213.54,140.56a13.87,13.87,0,0,1-.1,1.68,15.16,15.16,0,0,1-.09,1.64c-1.23,19-5.5,37.36-12.87,53.23,0,.09-.09.19-.12.28-.73,1.55-1.46,3-2.25,4.52-.85,1.71-1.77,3.38-2.75,5h-7.2V140.56Z"/></g></g></svg>